<svg
version="1.1"
width="2443"
height="1746">
<g
id="Radio Killed the Video Survey Cave">


<!--
Background
-->
<rect x="0" y="0" width="2443.713743" height="1746.382849" style="fill:white;stroke-width:3;stroke:black" />

<!--
XY Map Paths
-->

	<path
		id="Stn 1-2"
		d="M552.810091 412.502564 L482.598615 351.468659"
		style="stroke:black;stroke-width:3px;" />
	<path
		id="Stn 2-3"
		d="M482.598615 351.468659 L355.024854 298.226751"
		style="stroke:black;stroke-width:3px;" />
	<path
		id="Stn 2-4"
		d="M482.598615 351.468659 L438.419636 274.264161"
		style="stroke:black;stroke-width:3px;" />
	<path
		id="Stn 2-11"
		d="M482.598615 351.468659 L572.052701 313.593375"
		style="stroke:black;stroke-width:3px;" />
	<path
		id="Stn 3-6"
		d="M355.024854 298.226751 L317.799765 244.705136"
		style="stroke:black;stroke-width:3px;" />
	<path
		id="Stn 3-7"
		d="M355.024854 298.226751 L219.252062 408.173390"
		style="stroke:black;stroke-width:3px;" />
	<path
		id="Stn 3-9"
		d="M355.024854 298.226751 L411.622741 414.269618"
		style="stroke:black;stroke-width:3px;" />
	<path
		id="Stn 3-10"
		d="M355.024854 298.226751 L553.862820 282.919465"
		style="stroke:black;stroke-width:3px;" />
	<path
		id="Stn 4-5"
		d="M438.419636 274.264161 L397.281111 168.509836"
		style="stroke:black;stroke-width:3px;" />
	<path
		id="Stn 5-6"
		d="M397.281111 168.509836 L317.799765 244.705136"
		style="stroke:black;stroke-width:3px;" />
	<path
		id="Stn 5-12"
		d="M397.281111 168.509836 L427.776299 186.116241"
		style="stroke:black;stroke-width:3px;" />
	<path
		id="Stn 7-8"
		d="M219.252062 408.173390 L203.642812 496.697845"
		style="stroke:black;stroke-width:3px;" />
	<path
		id="Stn 10-11"
		d="M553.862820 282.919465 L572.052701 313.593375"
		style="stroke:black;stroke-width:3px;" />
	<path
		id="Stn 12-13"
		d="M427.776299 186.116241 L449.332232 266.564077"
		style="stroke:black;stroke-width:3px;" />
	<path
		id="Stn 13-14"
		d="M449.332232 266.564077 L509.796484 269.732874"
		style="stroke:black;stroke-width:3px;" />
	<path
		id="Stn 14-15"
		d="M509.796484 269.732874 L542.840349 292.021242"
		style="stroke:black;stroke-width:3px;" />
	<path
		id="Stn 15-16"
		d="M542.840349 292.021242 L555.724579 373.369073"
		style="stroke:black;stroke-width:3px;" />
	<path
		id="Stn 15-17"
		d="M542.840349 292.021242 L612.499456 277.214742"
		style="stroke:black;stroke-width:3px;" />
	<path
		id="Stn 17-18"
		d="M612.499456 277.214742 L645.594664 296.322269"
		style="stroke:black;stroke-width:3px;" />
	<path
		id="Stn 18-19"
		d="M645.594664 296.322269 L717.499270 297.577369"
		style="stroke:black;stroke-width:3px;" />
	<path
		id="Stn 19-20"
		d="M717.499270 297.577369 L817.987272 311.700037"
		style="stroke:black;stroke-width:3px;" />
	<path
		id="Stn 20-21"
		d="M817.987272 311.700037 L833.248214 353.629130"
		style="stroke:black;stroke-width:3px;" />
	<path
		id="Stn 21-22"
		d="M833.248214 353.629130 L910.368265 325.559727"
		style="stroke:black;stroke-width:3px;" />
	<path
		id="Stn 22-23"
		d="M910.368265 325.559727 L919.833080 370.088182"
		style="stroke:black;stroke-width:3px;" />
	<path
		id="Stn 23-24"
		d="M919.833080 370.088182 L1014.490027 323.920905"
		style="stroke:black;stroke-width:3px;" />
	<path
		id="Stn 24-25"
		d="M1014.490027 323.920905 L1063.956679 329.994646"
		style="stroke:black;stroke-width:3px;" />
	<path
		id="Stn 25-26"
		d="M1063.956679 329.994646 L1084.754186 300.292728"
		style="stroke:black;stroke-width:3px;" />
	<path
		id="Stn 26-27"
		d="M1084.754186 300.292728 L1121.862226 299.645005"
		style="stroke:black;stroke-width:3px;" />
	<path
		id="Stn 27-28"
		d="M1121.862226 299.645005 L1151.192117 263.425606"
		style="stroke:black;stroke-width:3px;" />
	<path
		id="Stn 28-29"
		d="M1151.192117 263.425606 L1173.844205 271.225345"
		style="stroke:black;stroke-width:3px;" />
	<path
		id="Stn 29-30"
		d="M1173.844205 271.225345 L1256.944664 198.987219"
		style="stroke:black;stroke-width:3px;" />
	<path
		id="Stn 30-31"
		d="M1256.944664 198.987219 L1367.791794 187.977738"
		style="stroke:black;stroke-width:3px;" />
	<path
		id="Stn 30-32"
		d="M1256.944664 198.987219 L1314.973360 272.510636"
		style="stroke:black;stroke-width:3px;" />
	<path
		id="Stn 30-34"
		d="M1256.944664 198.987219 L1317.518359 328.887926"
		style="stroke:black;stroke-width:3px;" />
	<path
		id="Stn 31-33"
		d="M1367.791794 187.977738 L1316.128737 123.724512"
		style="stroke:black;stroke-width:3px;" />
	<path
		id="Stn 31-35"
		d="M1367.791794 187.977738 L1371.690009 219.726148"
		style="stroke:black;stroke-width:3px;" />
	<path
		id="Stn 32-33"
		d="M1314.973360 272.510636 L1316.128737 123.724512"
		style="stroke:black;stroke-width:3px;" />
	<path
		id="Stn 35-36"
		d="M1371.690009 219.726148 L1623.635891 175.301292"
		style="stroke:black;stroke-width:3px;" />
	<path
		id="Stn 36-37"
		d="M1623.635891 175.301292 L1414.260774 90.708253"
		style="stroke:black;stroke-width:3px;" />
	<path
		id="Stn 36-38"
		d="M1623.635891 175.301292 L1616.262965 245.450000"
		style="stroke:black;stroke-width:3px;" />
	<path
		id="Stn 36-39"
		d="M1623.635891 175.301292 L1651.532380 272.587912"
		style="stroke:black;stroke-width:3px;" />
	<path
		id="Stn 39-40"
		d="M1651.532380 272.587912 L1818.663870 317.370660"
		style="stroke:black;stroke-width:3px;" />
	<path
		id="Stn 40-41"
		d="M1818.663870 317.370660 L1940.456609 443.490734"
		style="stroke:black;stroke-width:3px;" />
	<path
		id="Stn 41-42"
		d="M1940.456609 443.490734 L2060.285443 428.777603"
		style="stroke:black;stroke-width:3px;" />
	<path
		id="Stn 42-43"
		d="M2060.285443 428.777603 L2240.070931 497.790786"
		style="stroke:black;stroke-width:3px;" />

<!--
XZ Map Paths
-->

	<path
		id="Stn 1-2"
		d="M552.810091 592.737569 L482.598615 655.497409"
		style="stroke:black;stroke-width:3px;" />
	<path
		id="Stn 2-3"
		d="M482.598615 655.497409 L355.024854 684.424239"
		style="stroke:black;stroke-width:3px;" />
	<path
		id="Stn 2-4"
		d="M482.598615 655.497409 L438.419636 730.331354"
		style="stroke:black;stroke-width:3px;" />
	<path
		id="Stn 2-11"
		d="M482.598615 655.497409 L572.052701 672.447499"
		style="stroke:black;stroke-width:3px;" />
	<path
		id="Stn 3-6"
		d="M355.024854 684.424239 L317.799765 743.062073"
		style="stroke:black;stroke-width:3px;" />
	<path
		id="Stn 3-7"
		d="M355.024854 684.424239 L219.252062 675.266841"
		style="stroke:black;stroke-width:3px;" />
	<path
		id="Stn 3-9"
		d="M355.024854 684.424239 L411.622741 624.210311"
		style="stroke:black;stroke-width:3px;" />
	<path
		id="Stn 3-10"
		d="M355.024854 684.424239 L553.862820 709.960367"
		style="stroke:black;stroke-width:3px;" />
	<path
		id="Stn 4-5"
		d="M438.419636 730.331354 L397.281111 794.265873"
		style="stroke:black;stroke-width:3px;" />
	<path
		id="Stn 5-6"
		d="M397.281111 794.265873 L317.799765 743.062073"
		style="stroke:black;stroke-width:3px;" />
	<path
		id="Stn 5-12"
		d="M397.281111 794.265873 L427.776299 818.925903"
		style="stroke:black;stroke-width:3px;" />
	<path
		id="Stn 7-8"
		d="M219.252062 675.266841 L203.642812 588.447770"
		style="stroke:black;stroke-width:3px;" />
	<path
		id="Stn 10-11"
		d="M553.862820 709.960367 L572.052701 672.447499"
		style="stroke:black;stroke-width:3px;" />
	<path
		id="Stn 12-13"
		d="M427.776299 818.925903 L449.332232 841.245646"
		style="stroke:black;stroke-width:3px;" />
	<path
		id="Stn 13-14"
		d="M449.332232 841.245646 L509.796484 851.923383"
		style="stroke:black;stroke-width:3px;" />
	<path
		id="Stn 14-15"
		d="M509.796484 851.923383 L542.840349 904.824929"
		style="stroke:black;stroke-width:3px;" />
	<path
		id="Stn 15-16"
		d="M542.840349 904.824929 L555.724579 900.507870"
		style="stroke:black;stroke-width:3px;" />
	<path
		id="Stn 15-17"
		d="M542.840349 904.824929 L612.499456 885.739931"
		style="stroke:black;stroke-width:3px;" />
	<path
		id="Stn 17-18"
		d="M612.499456 885.739931 L645.594664 884.405229"
		style="stroke:black;stroke-width:3px;" />
	<path
		id="Stn 18-19"
		d="M645.594664 884.405229 L717.499270 924.274746"
		style="stroke:black;stroke-width:3px;" />
	<path
		id="Stn 19-20"
		d="M717.499270 924.274746 L817.987272 971.600783"
		style="stroke:black;stroke-width:3px;" />
	<path
		id="Stn 20-21"
		d="M817.987272 971.600783 L833.248214 982.727495"
		style="stroke:black;stroke-width:3px;" />
	<path
		id="Stn 21-22"
		d="M833.248214 982.727495 L910.368265 1059.270148"
		style="stroke:black;stroke-width:3px;" />
	<path
		id="Stn 22-23"
		d="M910.368265 1059.270148 L919.833080 1156.909937"
		style="stroke:black;stroke-width:3px;" />
	<path
		id="Stn 23-24"
		d="M919.833080 1156.909937 L1014.490027 1166.125253"
		style="stroke:black;stroke-width:3px;" />
	<path
		id="Stn 24-25"
		d="M1014.490027 1166.125253 L1063.956679 1193.755193"
		style="stroke:black;stroke-width:3px;" />
	<path
		id="Stn 25-26"
		d="M1063.956679 1193.755193 L1084.754186 1218.216156"
		style="stroke:black;stroke-width:3px;" />
	<path
		id="Stn 26-27"
		d="M1084.754186 1218.216156 L1121.862226 1282.508749"
		style="stroke:black;stroke-width:3px;" />
	<path
		id="Stn 27-28"
		d="M1121.862226 1282.508749 L1151.192117 1296.759699"
		style="stroke:black;stroke-width:3px;" />
	<path
		id="Stn 28-29"
		d="M1151.192117 1296.759699 L1173.844205 1291.666639"
		style="stroke:black;stroke-width:3px;" />
	<path
		id="Stn 29-30"
		d="M1173.844205 1291.666639 L1256.944664 1173.571004"
		style="stroke:black;stroke-width:3px;" />
	<path
		id="Stn 30-31"
		d="M1256.944664 1173.571004 L1367.791794 1149.404657"
		style="stroke:black;stroke-width:3px;" />
	<path
		id="Stn 30-32"
		d="M1256.944664 1173.571004 L1314.973360 1148.839937"
		style="stroke:black;stroke-width:3px;" />
	<path
		id="Stn 30-34"
		d="M1256.944664 1173.571004 L1317.518359 866.152923"
		style="stroke:black;stroke-width:3px;" />
	<path
		id="Stn 31-33"
		d="M1367.791794 1149.404657 L1316.128737 1077.170194"
		style="stroke:black;stroke-width:3px;" />
	<path
		id="Stn 31-35"
		d="M1367.791794 1149.404657 L1371.690009 1181.396365"
		style="stroke:black;stroke-width:3px;" />
	<path
		id="Stn 32-33"
		d="M1314.973360 1148.839937 L1316.128737 1077.170194"
		style="stroke:black;stroke-width:3px;" />
	<path
		id="Stn 35-36"
		d="M1371.690009 1181.396365 L1623.635891 1329.123858"
		style="stroke:black;stroke-width:3px;" />
	<path
		id="Stn 36-37"
		d="M1623.635891 1329.123858 L1414.260774 1309.364304"
		style="stroke:black;stroke-width:3px;" />
	<path
		id="Stn 36-38"
		d="M1623.635891 1329.123858 L1616.262965 1319.209285"
		style="stroke:black;stroke-width:3px;" />
	<path
		id="Stn 36-39"
		d="M1623.635891 1329.123858 L1651.532380 1345.155948"
		style="stroke:black;stroke-width:3px;" />
	<path
		id="Stn 39-40"
		d="M1651.532380 1345.155948 L1818.663870 1375.669968"
		style="stroke:black;stroke-width:3px;" />
	<path
		id="Stn 40-41"
		d="M1818.663870 1375.669968 L1940.456609 1331.949245"
		style="stroke:black;stroke-width:3px;" />
	<path
		id="Stn 41-42"
		d="M1940.456609 1331.949245 L2060.285443 1388.254551"
		style="stroke:black;stroke-width:3px;" />
	<path
		id="Stn 42-43"
		d="M2060.285443 1388.254551 L2240.070931 1495.017612"
		style="stroke:black;stroke-width:3px;" />

<!--
Map Title
-->

<text text-anchor="middle"  x="1221.856872" y="50.000000" font-family="Verdana" font-size="45" fill="black">
Radio Killed the Video Survey Cave
</text>

<!--
Watermark
-->

<text text-anchor="end"  x="2433.713743" y="1736.382849" font-family="Verdana" font-size="8" fill="black">
Created by: PHD - A cave survey tool
</text>

<!--
Survey Metrics
-->

<text text-anchor="start"  x="18.000000" y="1626.382849" font-family="Verdana" font-size="18" fill="black">
Number of Stations: 43
</text>

<text text-anchor="start"  x="18.000000" y="1644.382849" font-family="Verdana" font-size="18" fill="black">
Number of Shots: 45
</text>

<text text-anchor="start"  x="18.000000" y="1662.382849" font-family="Verdana" font-size="18" fill="black">
Surveyed Horizontal Distance: 177
</text>

<text text-anchor="start"  x="18.000000" y="1680.382849" font-family="Verdana" font-size="18" fill="black">
Surveyed Vertical Distance: 88
</text>

<text text-anchor="start"  x="18.000000" y="1698.382849" font-family="Verdana" font-size="18" fill="black">
Total Vertical Height: 36
</text>

<text text-anchor="start"  x="18.000000" y="1716.382849" font-family="Verdana" font-size="18" fill="black">
Total Surveyed Distance: 198
</text>
	</g>
</svg>